<svg xmlns="http://www.w3.org/2000/svg" viewBox="0 0 180 180">
  <defs>
    <linearGradient id="bg" x1="0" y1="0" x2="180" y2="180" gradientUnits="userSpaceOnUse">
      <stop offset="0%" stop-color="#0f172a"/>
      <stop offset="100%" stop-color="#1e293b"/> 
    </linearGradient>
    <linearGradient id="border" x1="0" y1="0" x2="180" y2="180" gradientUnits="userSpaceOnUse">
      <stop offset="0%" stop-color="#34d399"/>
      <stop offset="50%" stop-color="#10b981"/>
      <stop offset="100%" stop-color="#fbbf24"/>
    </linearGradient>
  </defs>
  <rect x="2" y="2" width="176" height="176" rx="44" fill="url(#bg)" stroke="url(#border)" stroke-width="3"/>
  <!-- screen -->
  <rect x="18" y="20" width="144" height="48" rx="14" fill="#064e3b" opacity="0.5"/>
  <text x="146" y="54" font-family="monospace" font-size="36" font-weight="bold" fill="#34d399" text-anchor="end">42</text>
  <!-- button grid 4x4 -->
  <rect x="18"  y="82" width="30" height="20" rx="6" fill="#27272a"/>
  <rect x="56"  y="82" width="30" height="20" rx="6" fill="#27272a"/>
  <rect x="94"  y="82" width="30" height="20" rx="6" fill="#27272a"/>
  <rect x="132" y="82" width="30" height="20" rx="6" fill="#f59e0b"/>
  <rect x="18"  y="110" width="30" height="20" rx="6" fill="#27272a"/>
  <rect x="56"  y="110" width="30" height="20" rx="6" fill="#27272a"/>
  <rect x="94"  y="110" width="30" height="20" rx="6" fill="#27272a"/>
  <rect x="132" y="110" width="30" height="20" rx="6" fill="#f59e0b"/>
  <rect x="18"  y="138" width="30" height="20" rx="6" fill="#27272a"/>
  <rect x="56"  y="138" width="30" height="20" rx="6" fill="#27272a"/>
  <rect x="94"  y="138" width="30" height="20" rx="6" fill="#27272a"/>
  <rect x="132" y="138" width="30" height="20" rx="6" fill="#10b981"/>
</svg>
